<?xml version="1.0" encoding="UTF-8" standalone="no"?>
<!DOCTYPE svg PUBLIC "-//W3C//DTD SVG 1.1//EN"
 "http://www.w3.org/Graphics/SVG/1.1/DTD/svg11.dtd">
<!-- Generated by graphviz version 2.40.1 (20161225.0304)
 -->
<!-- Title: dependencies Pages: 1 -->
<svg width="504pt" height="211pt"
 viewBox="0.00 0.00 504.00 211.00" xmlns="http://www.w3.org/2000/svg" xmlns:xlink="http://www.w3.org/1999/xlink">
<g id="graph0" class="graph" transform="scale(1 1) rotate(0) translate(4 207)">
<title>dependencies</title>
<polygon fill="#ffffff" stroke="transparent" points="-4,4 -4,-207 500,-207 500,4 -4,4"/>
<text text-anchor="start" x="227.0091" y="-42.4" font-family="sans-serif" font-weight="bold" font-size="14.00" fill="#000000">Legend</text>
<polygon fill="#ffffb3" stroke="transparent" points="14,-10 14,-30 34,-30 34,-10 14,-10"/>
<text text-anchor="start" x="37.629" y="-15.4" font-family="sans-serif" font-size="14.00" fill="#000000"> &#160;Declarations</text>
<polygon fill="#8dd3c7" stroke="transparent" points="127,-10 127,-30 147,-30 147,-10 127,-10"/>
<text text-anchor="start" x="150.7251" y="-15.4" font-family="sans-serif" font-size="14.00" fill="#000000"> &#160;Module</text>
<polygon fill="#80b1d3" stroke="transparent" points="213,-10 213,-30 233,-30 233,-10 213,-10"/>
<text text-anchor="start" x="236.7812" y="-15.4" font-family="sans-serif" font-size="14.00" fill="#000000"> &#160;Bootstrap</text>
<polygon fill="#fdb462" stroke="transparent" points="310,-10 310,-30 330,-30 330,-10 310,-10"/>
<text text-anchor="start" x="333.6732" y="-15.4" font-family="sans-serif" font-size="14.00" fill="#000000"> &#160;Providers</text>
<polygon fill="#fb8072" stroke="transparent" points="406,-10 406,-30 426,-30 426,-10 406,-10"/>
<text text-anchor="start" x="429.7258" y="-15.4" font-family="sans-serif" font-size="14.00" fill="#000000"> &#160;Exports</text>
<g id="clust1" class="cluster">
<title>cluster_HomeModule</title>
<polygon fill="none" stroke="#000000" stroke-dasharray="1,5" points="109,-70 109,-195 387,-195 387,-70 109,-70"/>
</g>
<g id="clust2" class="cluster">
<title>cluster_HomeModule_declarations</title>
<polygon fill="none" stroke="#000000" points="215,-78 215,-130 379,-130 379,-78 215,-78"/>
</g>
<g id="clust4" class="cluster">
<title>cluster_HomeModule_imports</title>
<polygon fill="none" stroke="#000000" points="117,-78 117,-130 207,-130 207,-78 117,-78"/>
</g>
<!-- HomeIndexComponent -->
<g id="node1" class="node">
<title>HomeIndexComponent</title>
<polygon fill="#ffffb3" stroke="#000000" points="370.92,-122 223.08,-122 223.08,-86 370.92,-86 370.92,-122"/>
<text text-anchor="middle" x="297" y="-99.8" font-family="Times,serif" font-size="14.00" fill="#000000">HomeIndexComponent</text>
</g>
<!-- HomeModule -->
<g id="node2" class="node">
<title>HomeModule</title>
<polygon fill="#8dd3c7" stroke="#000000" points="276.7619,-187 273.7619,-191 252.7619,-191 249.7619,-187 183.2381,-187 183.2381,-151 276.7619,-151 276.7619,-187"/>
<text text-anchor="middle" x="230" y="-164.8" font-family="Times,serif" font-size="14.00" fill="#000000">HomeModule</text>
</g>
<!-- HomeIndexComponent&#45;&gt;HomeModule -->
<g id="edge1" class="edge">
<title>HomeIndexComponent&#45;&gt;HomeModule</title>
<path fill="none" stroke="#000000" d="M250.0856,-122.1061C250.0856,-122.1061 250.0856,-140.991 250.0856,-140.991"/>
<polygon fill="#000000" stroke="#000000" points="246.5856,-140.9909 250.0856,-150.991 253.5856,-140.991 246.5856,-140.9909"/>
</g>
<!-- UiModule -->
<g id="node3" class="node">
<title>UiModule</title>
<polygon fill="#8dd3c7" stroke="#000000" points="198.5484,-122 195.5484,-126 174.5484,-126 171.5484,-122 125.4516,-122 125.4516,-86 198.5484,-86 198.5484,-122"/>
<text text-anchor="middle" x="162" y="-99.8" font-family="Times,serif" font-size="14.00" fill="#000000">UiModule</text>
</g>
<!-- UiModule&#45;&gt;HomeModule -->
<g id="edge2" class="edge">
<title>UiModule&#45;&gt;HomeModule</title>
<path fill="none" stroke="#000000" d="M190.9464,-122.1061C190.9464,-122.1061 190.9464,-140.991 190.9464,-140.991"/>
<polygon fill="#000000" stroke="#000000" points="187.4464,-140.9909 190.9464,-150.991 194.4464,-140.991 187.4464,-140.9909"/>
</g>
</g>
</svg>
