<?xml version="1.0" encoding="UTF-8" standalone="no"?>
<!DOCTYPE svg PUBLIC "-//W3C//DTD SVG 1.1//EN"
 "http://www.w3.org/Graphics/SVG/1.1/DTD/svg11.dtd">
<!-- Generated by graphviz version 2.40.1 (20161225.0304)
 -->
<!-- Title: dependencies Pages: 1 -->
<svg width="789pt" height="284pt"
 viewBox="0.00 0.00 789.00 284.00" xmlns="http://www.w3.org/2000/svg" xmlns:xlink="http://www.w3.org/1999/xlink">
<g id="graph0" class="graph" transform="scale(1 1) rotate(0) translate(4 280)">
<title>dependencies</title>
<polygon fill="#ffffff" stroke="transparent" points="-4,4 -4,-280 785,-280 785,4 -4,4"/>
<text text-anchor="start" x="369.5091" y="-42.4" font-family="sans-serif" font-weight="bold" font-size="14.00" fill="#000000">Legend</text>
<polygon fill="#ffffb3" stroke="transparent" points="156.5,-10 156.5,-30 176.5,-30 176.5,-10 156.5,-10"/>
<text text-anchor="start" x="180.129" y="-15.4" font-family="sans-serif" font-size="14.00" fill="#000000"> &#160;Declarations</text>
<polygon fill="#8dd3c7" stroke="transparent" points="269.5,-10 269.5,-30 289.5,-30 289.5,-10 269.5,-10"/>
<text text-anchor="start" x="293.2251" y="-15.4" font-family="sans-serif" font-size="14.00" fill="#000000"> &#160;Module</text>
<polygon fill="#80b1d3" stroke="transparent" points="355.5,-10 355.5,-30 375.5,-30 375.5,-10 355.5,-10"/>
<text text-anchor="start" x="379.2812" y="-15.4" font-family="sans-serif" font-size="14.00" fill="#000000"> &#160;Bootstrap</text>
<polygon fill="#fdb462" stroke="transparent" points="452.5,-10 452.5,-30 472.5,-30 472.5,-10 452.5,-10"/>
<text text-anchor="start" x="476.1732" y="-15.4" font-family="sans-serif" font-size="14.00" fill="#000000"> &#160;Providers</text>
<polygon fill="#fb8072" stroke="transparent" points="548.5,-10 548.5,-30 568.5,-30 568.5,-10 548.5,-10"/>
<text text-anchor="start" x="572.2258" y="-15.4" font-family="sans-serif" font-size="14.00" fill="#000000"> &#160;Exports</text>
<g id="clust1" class="cluster">
<title>cluster_UiModule</title>
<polygon fill="none" stroke="#000000" stroke-dasharray="1,5" points="8,-70 8,-268 773,-268 773,-70 8,-70"/>
</g>
<g id="clust2" class="cluster">
<title>cluster_UiModule_declarations</title>
<polygon fill="none" stroke="#000000" points="16,-78 16,-130 765,-130 765,-78 16,-78"/>
</g>
<g id="clust9" class="cluster">
<title>cluster_UiModule_exports</title>
<polygon fill="none" stroke="#000000" points="167,-208 167,-260 621,-260 621,-208 167,-208"/>
</g>
<!-- UiButtonComponent -->
<g id="node1" class="node">
<title>UiButtonComponent</title>
<polygon fill="#ffffb3" stroke="#000000" points="756.9482,-122 623.0518,-122 623.0518,-86 756.9482,-86 756.9482,-122"/>
<text text-anchor="middle" x="690" y="-99.8" font-family="Times,serif" font-size="14.00" fill="#000000">UiButtonComponent</text>
</g>
<!-- UiModule -->
<g id="node6" class="node">
<title>UiModule</title>
<polygon fill="#8dd3c7" stroke="#000000" points="431.5484,-187 428.5484,-191 407.5484,-191 404.5484,-187 358.4516,-187 358.4516,-151 431.5484,-151 431.5484,-187"/>
<text text-anchor="middle" x="395" y="-164.8" font-family="Times,serif" font-size="14.00" fill="#000000">UiModule</text>
</g>
<!-- UiButtonComponent&#45;&gt;UiModule -->
<g id="edge1" class="edge">
<title>UiButtonComponent&#45;&gt;UiModule</title>
<path fill="none" stroke="#000000" d="M690,-122.1061C690,-141.3391 690,-169 690,-169 690,-169 441.7655,-169 441.7655,-169"/>
<polygon fill="#000000" stroke="#000000" points="441.7655,-165.5001 431.7655,-169 441.7655,-172.5001 441.7655,-165.5001"/>
</g>
<!-- UiAlertComponent -->
<g id="node2" class="node">
<title>UiAlertComponent</title>
<polygon fill="#ffffb3" stroke="#000000" points="605.0926,-122 480.9074,-122 480.9074,-86 605.0926,-86 605.0926,-122"/>
<text text-anchor="middle" x="543" y="-99.8" font-family="Times,serif" font-size="14.00" fill="#000000">UiAlertComponent</text>
</g>
<!-- UiAlertComponent&#45;&gt;UiModule -->
<g id="edge2" class="edge">
<title>UiAlertComponent&#45;&gt;UiModule</title>
<path fill="none" stroke="#000000" d="M563.6821,-122.027C563.6821,-138.3976 563.6821,-160 563.6821,-160 563.6821,-160 441.6015,-160 441.6015,-160"/>
<polygon fill="#000000" stroke="#000000" points="441.6015,-156.5001 431.6015,-160 441.6015,-163.5001 441.6015,-156.5001"/>
</g>
<!-- UiLayoutComponent -->
<g id="node3" class="node">
<title>UiLayoutComponent</title>
<polygon fill="#ffffb3" stroke="#000000" points="462.4874,-122 327.5126,-122 327.5126,-86 462.4874,-86 462.4874,-122"/>
<text text-anchor="middle" x="395" y="-99.8" font-family="Times,serif" font-size="14.00" fill="#000000">UiLayoutComponent</text>
</g>
<!-- UiLayoutComponent&#45;&gt;UiModule -->
<g id="edge3" class="edge">
<title>UiLayoutComponent&#45;&gt;UiModule</title>
<path fill="none" stroke="#000000" d="M395,-122.1061C395,-122.1061 395,-140.991 395,-140.991"/>
<polygon fill="#000000" stroke="#000000" points="391.5001,-140.9909 395,-150.991 398.5001,-140.991 391.5001,-140.9909"/>
</g>
<!-- UiHeaderComponent -->
<g id="node4" class="node">
<title>UiHeaderComponent</title>
<polygon fill="#ffffb3" stroke="#000000" points="309.7408,-122 174.2592,-122 174.2592,-86 309.7408,-86 309.7408,-122"/>
<text text-anchor="middle" x="242" y="-99.8" font-family="Times,serif" font-size="14.00" fill="#000000">UiHeaderComponent</text>
</g>
<!-- UiHeaderComponent&#45;&gt;UiModule -->
<g id="edge4" class="edge">
<title>UiHeaderComponent&#45;&gt;UiModule</title>
<path fill="none" stroke="#000000" d="M219.7943,-122.027C219.7943,-138.3976 219.7943,-160 219.7943,-160 219.7943,-160 348.2711,-160 348.2711,-160"/>
<polygon fill="#000000" stroke="#000000" points="348.2712,-163.5001 358.2711,-160 348.2711,-156.5001 348.2712,-163.5001"/>
</g>
<!-- UiFooterComponent -->
<g id="node5" class="node">
<title>UiFooterComponent</title>
<polygon fill="#ffffb3" stroke="#000000" points="155.8781,-122 24.1219,-122 24.1219,-86 155.8781,-86 155.8781,-122"/>
<text text-anchor="middle" x="90" y="-99.8" font-family="Times,serif" font-size="14.00" fill="#000000">UiFooterComponent</text>
</g>
<!-- UiFooterComponent&#45;&gt;UiModule -->
<g id="edge5" class="edge">
<title>UiFooterComponent&#45;&gt;UiModule</title>
<path fill="none" stroke="#000000" d="M90,-122.1061C90,-141.3391 90,-169 90,-169 90,-169 348.2099,-169 348.2099,-169"/>
<polygon fill="#000000" stroke="#000000" points="348.2099,-172.5001 358.2099,-169 348.2098,-165.5001 348.2099,-172.5001"/>
</g>
<!-- UiButtonComponent  -->
<g id="node7" class="node">
<title>UiButtonComponent </title>
<polygon fill="#fb8072" stroke="#000000" points="613.4474,-252 476.5526,-252 476.5526,-216 613.4474,-216 613.4474,-252"/>
<text text-anchor="middle" x="545" y="-229.8" font-family="Times,serif" font-size="14.00" fill="#000000">UiButtonComponent </text>
</g>
<!-- UiModule&#45;&gt;UiButtonComponent  -->
<g id="edge6" class="edge">
<title>UiModule&#45;&gt;UiButtonComponent </title>
<path fill="none" stroke="#000000" stroke-dasharray="5,2" d="M431.8256,-178C469.4274,-178 522.3179,-178 522.3179,-178 522.3179,-178 522.3179,-205.973 522.3179,-205.973"/>
<polygon fill="#000000" stroke="#000000" points="518.818,-205.973 522.3179,-215.973 525.818,-205.973 518.818,-205.973"/>
</g>
<!-- UiAlertComponent  -->
<g id="node8" class="node">
<title>UiAlertComponent </title>
<polygon fill="#fb8072" stroke="#000000" points="458.5932,-252 331.4068,-252 331.4068,-216 458.5932,-216 458.5932,-252"/>
<text text-anchor="middle" x="395" y="-229.8" font-family="Times,serif" font-size="14.00" fill="#000000">UiAlertComponent </text>
</g>
<!-- UiModule&#45;&gt;UiAlertComponent  -->
<g id="edge7" class="edge">
<title>UiModule&#45;&gt;UiAlertComponent </title>
<path fill="none" stroke="#000000" stroke-dasharray="5,2" d="M395,-187.1061C395,-187.1061 395,-205.991 395,-205.991"/>
<polygon fill="#000000" stroke="#000000" points="391.5001,-205.9909 395,-215.991 398.5001,-205.991 391.5001,-205.9909"/>
</g>
<!-- UiLayoutComponent  -->
<g id="node9" class="node">
<title>UiLayoutComponent </title>
<polygon fill="#fb8072" stroke="#000000" points="313.4883,-252 174.5117,-252 174.5117,-216 313.4883,-216 313.4883,-252"/>
<text text-anchor="middle" x="244" y="-229.8" font-family="Times,serif" font-size="14.00" fill="#000000">UiLayoutComponent </text>
</g>
<!-- UiModule&#45;&gt;UiLayoutComponent  -->
<g id="edge8" class="edge">
<title>UiModule&#45;&gt;UiLayoutComponent </title>
<path fill="none" stroke="#000000" stroke-dasharray="5,2" d="M358.3946,-178C319.8943,-178 264.8323,-178 264.8323,-178 264.8323,-178 264.8323,-205.973 264.8323,-205.973"/>
<polygon fill="#000000" stroke="#000000" points="261.3324,-205.973 264.8323,-215.973 268.3324,-205.973 261.3324,-205.973"/>
</g>
</g>
</svg>
